<?xml version="1.0" encoding="UTF-8"?>
<svg width="64" height="64" viewBox="0 0 64 64" fill="none" xmlns="http://www.w3.org/2000/svg" role="img" aria-label="613 favicon">
  <!-- Background -->
  <rect x="2" y="2" width="60" height="60" rx="12" fill="#0B1321"/>
  <!-- Tablets (two rounded rectangles) -->
  <g transform="translate(12,12)">
    <rect x="0" y="4" width="16" height="28" rx="3" fill="#FFFFFF"/>
    <rect x="24" y="4" width="16" height="28" rx="3" fill="#FFFFFF"/>
    <!-- Divider marks (ten minimal dashes) -->
    <g stroke="#0B1321" stroke-width="2" stroke-linecap="round">
      <line x1="4" y1="10" x2="12" y2="10"/>
      <line x1="4" y1="14" x2="12" y2="14"/>
      <line x1="4" y1="18" x2="12" y2="18"/>
      <line x1="4" y1="22" x2="12" y2="22"/>
      <line x1="4" y1="26" x2="12" y2="26"/>
      <line x1="28" y1="10" x2="36" y2="10"/>
      <line x1="28" y1="14" x2="36" y2="14"/>
      <line x1="28" y1="18" x2="36" y2="18"/>
      <line x1="28" y1="22" x2="36" y2="22"/>
      <line x1="28" y1="26" x2="36" y2="26"/>
    </g>
  </g>
  <!-- Subtle border -->
  <rect x="2.75" y="2.75" width="58.5" height="58.5" rx="11.25" stroke="#1F2A44" stroke-width="1.5" fill="none"/>
</svg>
